<?xml version="1.0" standalone="no"?>
<!DOCTYPE svg PUBLIC "-//W3C//DTD SVG 20010904//EN"
 "http://www.w3.org/TR/2001/REC-SVG-20010904/DTD/svg10.dtd">
<svg version="1.0" xmlns="http://www.w3.org/2000/svg"
 width="686.000000pt" height="290.000000pt" viewBox="0 0 686.000000 290.000000"
 preserveAspectRatio="xMidYMid meet">
<metadata>
Created by potrace 1.16, written by Peter Selinger 2001-2019
</metadata>
<g transform="translate(0.000000,290.000000) scale(0.100000,-0.100000)"
fill="#000000" stroke="none">
<path d="M6145 2859 c-228 -21 -440 -68 -660 -145 -137 -49 -399 -179 -520
-259 -305 -204 -561 -473 -745 -786 -22 -37 -45 -62 -67 -73 -59 -28 -128
-102 -159 -169 -22 -49 -28 -78 -30 -142 -1 -72 -6 -89 -43 -166 -58 -119 -84
-250 -78 -389 9 -212 98 -336 284 -400 59 -20 92 -24 247 -27 196 -4 255 -17
323 -69 41 -31 89 -103 98 -146 11 -47 25 -20 31 58 4 46 1 91 -10 137 -19 79
-19 80 -7 73 4 -3 70 -10 145 -16 219 -18 325 -52 413 -133 l44 -41 -7 30
c-10 44 -60 141 -100 195 -42 58 -116 114 -189 144 l-54 22 39 22 c22 12 70
54 107 93 81 84 193 165 239 174 40 7 41 12 13 48 -30 38 -75 58 -128 58 -57
0 -110 -21 -175 -71 -77 -59 -114 -74 -177 -74 -137 0 -270 135 -271 276 0 60
35 149 73 184 24 21 25 21 89 6 90 -23 295 -22 375 0 79 22 328 123 446 182
201 100 358 226 445 356 25 38 63 113 85 168 36 87 85 161 109 161 4 0 24 -13
45 -30 50 -40 93 -40 138 0 61 53 102 184 78 250 -20 59 12 87 116 100 82 10
113 36 113 93 0 54 -22 94 -85 157 -30 30 -55 62 -55 72 0 10 14 28 31 40 l31
23 -44 7 c-74 12 -448 17 -553 7z m495 -54 c-14 -37 8 -84 58 -124 71 -56 103
-131 67 -161 -8 -6 -43 -15 -77 -20 -128 -16 -153 -44 -142 -160 6 -74 5 -84
-21 -135 -16 -34 -37 -61 -54 -70 -27 -13 -31 -12 -70 17 -23 17 -53 31 -66
31 -13 0 -26 6 -29 13 -7 19 -50 18 -66 -1 -7 -8 -10 -25 -6 -40 5 -18 -1 -39
-20 -70 -23 -40 -27 -43 -41 -30 -8 8 -20 15 -26 15 -10 -1 -83 -95 -95 -122
-5 -11 58 -40 74 -34 20 8 18 1 -22 -62 -66 -102 -168 -193 -332 -296 -38 -24
-42 -24 -33 -7 6 11 11 34 11 51 0 27 -2 30 -14 17 -8 -8 -44 -29 -80 -48 -36
-19 -66 -37 -66 -41 0 -10 61 -28 74 -21 7 4 8 2 1 -5 -10 -11 -169 -83 -214
-97 -23 -7 -23 -7 -7 16 9 13 16 33 16 45 0 20 -1 21 -51 8 -29 -8 -67 -15
-85 -16 -19 -1 -34 -7 -34 -13 0 -13 35 -47 63 -62 16 -8 9 -13 -41 -31 -56
-21 -147 -42 -180 -42 -13 0 -12 3 3 14 11 8 24 13 30 12 5 -2 7 -1 3 1 -4 3
-5 18 -1 34 3 18 0 38 -11 54 -15 23 -23 26 -64 23 -38 -2 -49 -8 -62 -30 -11
-21 -12 -34 -4 -55 l10 -28 -60 3 c-44 2 -57 0 -46 -7 13 -9 13 -11 -2 -11
-14 0 -16 7 -11 35 7 41 -9 65 -43 65 -27 0 -48 -32 -41 -61 5 -17 1 -19 -26
-14 -18 3 -64 10 -103 16 -69 11 -72 13 -82 45 -5 19 -7 32 -3 29 4 -2 34 8
67 24 l59 27 -30 11 c-17 5 -39 9 -50 7 -11 -2 -32 -5 -48 -6 -20 -2 -26 -6
-22 -18 3 -8 -7 1 -24 21 -16 19 -48 48 -70 63 l-41 29 30 37 c17 21 30 42 30
46 0 5 16 27 35 49 49 56 51 58 65 85 12 23 12 23 -36 -5 -27 -15 -73 -45
-101 -67 -72 -53 -81 -55 -89 -24 -5 21 -11 26 -31 23 -14 -2 -34 -14 -45 -28
-46 -57 36 73 109 171 70 94 78 102 83 80 3 -14 18 -31 32 -39 59 -34 111 57
53 95 -13 8 -29 13 -35 9 -28 -18 -3 17 53 73 l64 63 0 -30 c0 -34 23 -66 53
-74 11 -3 19 -2 18 2 -2 12 16 47 45 84 27 34 28 40 15 54 -9 8 -28 16 -43 16
-27 2 -26 3 21 44 26 23 68 56 92 74 44 32 45 32 39 9 -3 -14 -4 -35 0 -48 4
-19 7 -20 17 -8 6 7 39 34 74 59 63 46 64 53 14 66 -24 7 -19 11 65 59 99 57
108 60 99 36 -8 -22 3 -61 13 -45 4 6 42 27 84 45 73 31 76 34 59 50 -10 9
-24 16 -31 16 -29 0 5 20 98 59 55 22 102 41 104 41 3 0 3 -19 0 -42 -2 -24
-1 -38 4 -32 9 12 102 44 127 44 9 0 16 4 16 8 0 11 -30 38 -50 44 -31 10 366
108 435 108 18 -1 19 -1 3 -11 -38 -22 -10 -99 35 -99 51 0 74 63 36 99 -21
19 -21 19 58 26 43 3 85 8 93 9 8 2 97 4 197 5 l183 1 -10 -25z m-2236 -1245
c103 -39 175 -135 184 -246 21 -262 -301 -412 -490 -227 -55 54 -82 123 -82
208 1 89 28 149 95 209 84 76 187 95 293 56z m649 -247 c-13 -2 -35 -2 -50 0
-16 2 -5 4 22 4 28 0 40 -2 28 -4z m-406 -85 c-3 -8 -6 -5 -6 6 -1 11 2 17 5
13 3 -3 4 -12 1 -19z m-13 -65 c-4 -36 -3 -44 5 -33 8 11 11 3 11 -34 0 -39
-3 -47 -12 -38 -17 17 -48 15 -70 -5 -18 -16 -25 -68 -10 -77 4 -2 6 12 4 32
l-3 37 20 -25 c11 -14 23 -33 27 -42 7 -23 17 -23 38 1 17 19 19 18 45 -32 26
-50 27 -52 8 -60 -18 -7 -16 -10 19 -37 27 -22 40 -27 45 -18 6 9 12 8 26 -4
30 -27 126 -68 160 -68 17 0 34 -4 37 -8 8 -14 76 -13 76 1 0 7 19 22 42 35
36 20 43 21 50 7 18 -31 67 -12 54 21 -5 12 -10 13 -28 3 -22 -11 -22 -11 2
16 27 30 113 75 144 75 30 0 96 -22 96 -33 0 -5 -14 -7 -30 -5 -22 3 -29 1
-26 -8 2 -6 -15 -26 -39 -43 -25 -18 -84 -66 -132 -107 -48 -42 -101 -83 -118
-91 -38 -20 -123 -43 -155 -42 l-25 1 25 7 c21 7 16 10 -35 21 -109 23 -175
52 -226 98 -27 24 -49 49 -49 55 0 6 -9 20 -19 31 -11 12 -43 57 -73 102 -34
52 -58 79 -68 77 -8 -2 -4 4 10 14 55 37 137 130 156 176 10 26 20 47 21 47 2
0 0 -21 -3 -47z m-485 -169 c36 -16 38 -19 49 -88 9 -50 9 -81 2 -106 -45
-156 47 -274 264 -336 47 -13 48 -14 11 -10 -22 3 -46 1 -54 -3 -9 -6 -21 -1
-36 17 -22 26 -25 26 -60 13 -30 -11 -45 -11 -81 -1 -41 12 -43 14 -29 30 33
37 7 88 -40 76 -16 -4 -27 -16 -32 -36 l-8 -30 -38 27 c-21 15 -48 43 -60 62
-21 34 -22 46 -22 262 l0 226 48 -43 c26 -24 65 -51 86 -60z m203 -58 c16 -24
7 -35 -13 -15 -24 24 -43 21 -47 -9 -5 -31 34 -65 67 -59 23 5 29 0 52 -43 26
-48 26 -50 8 -66 -23 -21 -25 -71 -2 -96 20 -22 60 -23 84 -2 16 14 21 13 58
-12 32 -21 40 -31 35 -46 -13 -42 51 -75 85 -44 26 24 86 0 97 -38 7 -25 15
-32 41 -34 25 -2 34 2 44 20 16 31 28 38 67 38 29 0 32 -2 26 -24 -6 -25 17
-56 41 -56 7 0 24 13 37 29 22 28 24 29 55 16 23 -10 32 -21 35 -42 2 -18 10
-29 22 -31 11 -3 16 0 12 7 -5 7 2 11 18 11 16 0 38 -14 61 -37 38 -39 45 -56
18 -46 -11 5 -14 3 -9 -6 5 -7 17 -11 27 -8 13 4 26 -4 40 -25 29 -40 19 -45
-28 -14 -64 43 -144 65 -308 86 -86 11 -175 24 -198 30 -23 6 -59 16 -80 21
-21 6 -35 14 -32 18 7 12 -51 35 -65 26 -6 -3 -9 -2 -8 4 2 7 -20 28 -48 49
-137 99 -159 119 -195 177 -21 33 -45 69 -55 79 -22 24 -46 104 -38 128 3 11
0 18 -8 19 -7 1 1 4 17 8 36 8 77 2 87 -13z m3 -350 c20 -21 34 -40 32 -42 -2
-3 -26 10 -53 28 -63 43 -94 89 -94 142 l0 41 40 -65 c21 -36 55 -82 75 -104z
m70 14 c10 -11 16 -20 13 -20 -3 0 -13 9 -23 20 -10 11 -16 20 -13 20 3 0 13
-9 23 -20z m179 -188 c26 -11 42 -21 35 -24 -8 -2 -32 6 -54 19 -49 28 -45 29
19 5z m144 -72 c22 -32 35 -71 46 -140 6 -31 5 -33 -6 -16 -7 11 -32 41 -56
67 -28 31 -39 49 -30 52 10 4 11 7 1 18 -7 7 -13 21 -13 31 0 10 -5 18 -11 18
-5 0 -8 4 -4 10 10 16 49 -5 73 -40z"/>
<path d="M5797 2732 c-24 -26 -23 -66 1 -57 9 3 38 9 65 12 50 6 59 19 29 46
-25 22 -75 21 -95 -1z"/>
<path d="M6320 2536 c-19 -23 -8 -61 18 -64 44 -7 67 32 36 62 -19 20 -38 20
-54 2z"/>
<path d="M6210 2433 c0 -5 -22 -22 -49 -38 -37 -23 -47 -33 -39 -42 16 -19 72
-16 91 5 19 20 23 67 7 77 -5 3 -10 2 -10 -2z"/>
<path d="M5913 2229 l-72 -47 28 -12 c50 -20 110 12 123 66 10 42 -8 40 -79
-7z"/>
<path d="M5675 2091 c-5 -5 -45 -30 -89 -54 -71 -41 -76 -46 -58 -56 49 -26
121 -2 147 50 18 33 17 77 0 60z"/>
<path d="M5275 1879 c-27 -16 -65 -31 -82 -35 -37 -7 -42 -19 -14 -34 29 -15
88 -12 116 6 25 16 51 73 38 84 -5 4 -30 -6 -58 -21z"/>
<path d="M5962 1836 c-13 -19 -40 -52 -61 -75 -32 -35 -36 -43 -24 -53 8 -7
31 -12 50 -12 72 0 120 99 76 153 l-18 21 -23 -34z"/>
<path d="M4995 1775 c-5 -2 -36 -8 -67 -15 -61 -14 -65 -18 -47 -53 16 -30 28
-37 67 -37 40 0 72 30 72 69 0 30 -7 40 -25 36z"/>
<path d="M4696 1644 c-19 -18 -20 -28 -6 -55 16 -29 67 -26 81 5 23 50 -36 90
-75 50z"/>
<path d="M4252 1509 c-163 -81 -117 -332 63 -347 72 -6 98 2 144 43 51 46 64
82 59 154 -3 45 -11 68 -32 96 -55 71 -153 94 -234 54z m49 -70 c16 -17 32
-42 35 -56 13 -51 -31 -99 -101 -110 -30 -5 -41 -2 -51 12 -18 25 -18 77 1
123 29 69 70 80 116 31z"/>
<path d="M5271 861 c-7 -5 -10 -14 -7 -20 10 -16 43 -14 49 3 10 25 -14 34
-42 17z"/>
<path d="M4843 669 c11 -7 23 -7 35 0 14 9 11 10 -18 10 -29 0 -32 -1 -17 -10z"/>
<path d="M4048 959 c-28 -16 -23 -65 8 -85 14 -10 28 -13 33 -8 11 12 30 92
23 99 -9 8 -45 5 -64 -6z"/>
<path d="M4041 748 c-12 -32 2 -62 29 -66 12 -2 20 0 17 6 -4 5 -7 25 -9 45
-2 42 -24 50 -37 15z"/>
<path d="M4131 724 c0 -11 3 -14 6 -6 3 7 2 16 -1 19 -3 4 -6 -2 -5 -13z"/>
<path d="M1555 2600 c-3 -6 1 -7 9 -4 18 7 21 14 7 14 -6 0 -13 -4 -16 -10z"/>
<path d="M1517 2561 c-28 -48 -19 -97 27 -133 23 -20 87 -24 117 -8 25 14 49
62 48 97 -1 26 -1 26 -10 -7 -11 -39 -51 -80 -79 -80 -20 0 -100 89 -100 112
0 8 5 19 12 26 6 6 9 14 7 17 -3 2 -13 -9 -22 -24z"/>
<path d="M880 2288 c-1 -43 64 -57 92 -19 10 13 10 14 -2 4 -21 -20 -50 -15
-71 10 -15 18 -18 19 -19 5z"/>
<path d="M590 2279 c-144 -43 -180 -243 -57 -326 48 -32 78 -36 107 -14 l25
20 -28 10 c-15 6 -27 15 -27 20 0 5 -9 12 -19 16 -11 3 -23 16 -27 28 -3 12
-21 38 -39 57 -50 52 -50 87 -2 135 69 69 176 67 241 -6 43 -47 52 -90 32
-146 -15 -43 -13 -50 13 -34 10 6 12 26 9 74 -3 51 -10 72 -30 99 -44 58 -130
87 -198 67z"/>
<path d="M210 2207 c0 -21 18 -59 34 -69 6 -4 28 -8 48 -8 38 0 69 27 67 60 0
9 -4 6 -9 -8 -5 -12 -21 -28 -36 -34 -25 -11 -29 -9 -65 32 -28 33 -38 40 -39
27z"/>
<path d="M970 2161 c-15 -29 -13 -71 4 -71 21 0 30 19 16 35 -7 8 -10 24 -7
35 7 25 1 26 -13 1z"/>
<path d="M1500 2148 c-38 -62 -19 -127 44 -153 17 -7 43 -11 59 -8 33 6 77 56
77 86 -1 18 -3 16 -15 -10 -14 -32 -41 -53 -70 -53 -23 0 -95 80 -95 105 0 11
7 31 16 43 8 12 13 22 9 22 -3 0 -14 -15 -25 -32z"/>
<path d="M2360 2129 c-6 -11 -8 -33 -5 -50 18 -79 140 -79 159 1 7 25 6 24 -9
-2 -18 -32 -48 -50 -69 -42 -26 10 -68 74 -63 95 7 25 1 24 -13 -2z"/>
<path d="M1156 2114 c-4 -14 -5 -29 -2 -31 3 -3 8 7 12 21 3 15 4 29 1 32 -2
3 -8 -7 -11 -22z"/>
<path d="M2110 2083 c0 -28 14 -43 40 -43 16 0 31 4 34 9 3 4 -5 6 -18 4 -17
-4 -28 2 -40 18 -9 13 -16 18 -16 12z"/>
<path d="M938 2035 c-77 -19 -191 -77 -269 -135 -137 -103 -278 -276 -342
-423 -28 -64 -32 -82 -32 -169 0 -92 1 -98 30 -133 48 -60 86 -75 187 -75 49
0 88 -3 87 -7 0 -5 -49 -48 -109 -98 -63 -52 -109 -96 -107 -105 4 -24 123
-98 194 -120 184 -57 389 9 564 180 l57 56 7 -35 c9 -49 48 -121 82 -153 50
-47 109 -68 198 -68 44 0 103 6 130 14 47 12 54 11 125 -15 41 -15 97 -37 123
-48 27 -12 51 -21 53 -21 3 0 16 25 30 56 l24 55 32 -26 c29 -24 38 -27 93
-23 57 4 132 32 196 74 24 16 28 15 142 -35 65 -28 122 -51 127 -51 6 0 10 22
10 49 0 28 4 52 8 55 13 8 102 -37 162 -82 62 -48 65 -46 75 42 7 59 8 59 21
33 18 -33 62 -57 107 -57 112 0 292 128 575 410 145 145 196 213 207 282 14
83 -40 154 -143 185 -121 38 -624 11 -658 -35 -11 -14 -23 -11 -127 35 -64 28
-119 48 -122 45 -3 -3 -5 -19 -6 -36 -1 -69 -3 -69 -139 -7 -106 50 -126 56
-132 42 -3 -9 -23 -103 -43 -209 -40 -210 -61 -286 -77 -276 -19 12 -1 147 31
240 18 49 33 93 34 99 3 15 -275 148 -283 135 -4 -7 -15 -49 -25 -95 l-17 -83
-67 67 c-81 82 -147 111 -266 118 -94 6 -166 -16 -240 -73 l-45 -34 0 43 c0
63 -25 169 -56 238 -32 70 -115 152 -172 169 -60 19 -172 21 -234 5z m24 -119
c2 -32 -2 -51 -15 -67 l-18 -22 -24 23 c-16 15 -41 24 -75 28 -51 5 -72 -4
-91 -39 -8 -15 -2 -14 33 6 84 48 90 26 17 -64 l-52 -63 25 -25 25 -24 -38
-41 -37 -41 -27 31 c-25 29 -27 30 -44 14 -9 -9 -39 -37 -65 -60 -53 -49 -53
-62 -4 -92 18 -11 28 -20 23 -20 -6 0 -28 -18 -50 -39 l-40 -39 -22 21 -23 20
-24 -22 -23 -22 -7 32 c-17 86 202 367 374 478 50 32 139 70 166 71 7 0 14
-19 16 -44z m1883 -349 c28 -11 51 -21 53 -22 1 -1 -13 -80 -32 -176 -65 -327
-96 -496 -96 -522 0 -14 -3 -28 -8 -31 -4 -2 -32 11 -62 30 -30 19 -49 34 -42
34 9 0 12 42 11 163 l-1 162 -18 -70 c-24 -94 -24 -72 -1 50 11 55 32 175 47
267 l27 167 36 -16 c20 -8 59 -24 86 -36z m729 29 c99 -31 126 -90 82 -179
-19 -40 -70 -97 -198 -223 -311 -305 -499 -424 -562 -355 -35 39 -30 113 29
379 5 19 1 22 -24 22 l-29 0 18 48 c10 26 33 102 50 169 l33 122 39 6 c213 36
466 41 562 11z m-930 -89 c-16 -51 -33 -91 -33 -81 -1 6 6 31 14 54 14 39 14
44 -2 57 -16 13 -16 13 5 3 18 -9 21 -16 16 -33z m-1714 -69 c0 -13 -4 -28 -8
-34 -8 -12 -82 -27 -82 -16 1 6 80 71 88 72 1 0 2 -10 2 -22z m358 -24 c-6
-16 -13 -31 -14 -32 -2 -4 -50 9 -94 25 -8 3 14 13 50 22 36 9 66 16 68 15 1
-1 -3 -14 -10 -30z m1299 -116 c-3 -8 -6 -5 -6 6 -1 11 2 17 5 13 3 -3 4 -12
1 -19z m-10 -40 c-3 -8 -6 -5 -6 6 -1 11 2 17 5 13 3 -3 4 -12 1 -19z m-917
-93 c0 -9 -6 -28 -14 -44 -13 -24 -19 -27 -51 -23 l-37 4 38 39 c40 41 64 50
64 24z m-820 -43 c0 -5 -18 -17 -40 -27 -31 -14 -43 -16 -52 -7 -16 16 -8 21
43 31 24 5 45 9 47 10 1 1 2 -3 2 -7z m1697 -119 c-3 -10 -5 -4 -5 12 0 17 2
24 5 18 2 -7 2 -21 0 -30z m80 -25 c-3 -8 -6 -5 -6 6 -1 11 2 17 5 13 3 -3 4
-12 1 -19z m-90 -45 c-3 -10 -5 -4 -5 12 0 17 2 24 5 18 2 -7 2 -21 0 -30z
m80 -8 c-1 -19 -5 -35 -9 -35 -9 0 -10 17 -2 48 9 32 13 27 11 -13z m-94 -106
c-6 -6 -7 3 -4 23 4 28 6 29 9 9 2 -13 0 -27 -5 -32z"/>
<path d="M536 1634 c-9 -8 -16 -23 -16 -32 0 -13 5 -11 20 8 29 37 26 55 -4
24z"/>
<path d="M3157 1273 c-7 -12 -38 -155 -34 -159 6 -6 93 70 118 102 36 48 32
59 -28 62 -28 2 -53 -1 -56 -5z"/>
<path d="M1877 2033 c-15 -14 -6 -74 13 -93 43 -43 132 -17 129 39 0 11 -3 9
-9 -7 -5 -12 -21 -28 -36 -34 -25 -12 -29 -10 -60 27 -20 23 -33 47 -30 58 4
18 3 21 -7 10z"/>
<path d="M2821 1999 c-1 -45 32 -79 77 -79 31 0 72 29 72 50 0 6 -9 1 -20 -10
-11 -11 -29 -20 -40 -20 -22 0 -67 42 -81 75 -6 16 -8 13 -8 -16z"/>
<path d="M1387 1934 c-10 -13 -13 -24 -8 -24 10 0 36 39 29 45 -2 2 -11 -8
-21 -21z"/>
<path d="M2590 1935 c0 -17 5 -36 12 -43 17 -17 63 -15 79 5 13 15 12 15 -8 5
-29 -16 -48 -7 -67 31 l-16 32 0 -30z"/>
<path d="M1690 1930 c0 -38 47 -53 71 -23 13 15 12 15 -9 2 -21 -13 -25 -12
-42 11 -14 17 -20 20 -20 10z"/>
<path d="M2270 1913 c0 -28 14 -43 40 -43 16 0 31 4 34 9 3 4 -5 6 -18 4 -17
-4 -28 2 -40 18 -9 13 -16 18 -16 12z"/>
<path d="M1440 1857 c0 -59 82 -91 114 -45 24 33 19 45 -5 14 -28 -36 -44 -33
-79 16 -29 39 -30 40 -30 15z"/>
<path d="M1780 1779 c0 -8 5 -20 12 -27 14 -14 54 -16 62 -3 3 4 -5 6 -18 4
-17 -4 -28 2 -40 18 -11 16 -16 19 -16 8z"/>
<path d="M400 1756 c0 -2 8 -10 18 -17 15 -13 16 -12 3 4 -13 16 -21 21 -21
13z"/>
<path d="M260 1721 c-25 -47 -5 -117 41 -141 37 -20 34 17 -6 66 -33 40 -36
48 -26 70 13 29 6 32 -9 5z"/>
<path d="M91 1605 c5 -22 54 -34 72 -16 7 7 3 8 -12 4 -14 -3 -29 1 -42 13
-21 19 -21 19 -18 -1z"/>
<path d="M130 1395 c-12 -31 2 -70 29 -84 25 -14 68 -14 76 -1 3 6 -5 10 -19
10 -34 0 -78 48 -73 78 6 29 -1 28 -13 -3z"/>
</g>
</svg>
